<svg width="576" height="576" viewBox="0 0 576 576" fill="none" xmlns="http://www.w3.org/2000/svg">
<path fill-rule="evenodd" clip-rule="evenodd" d="M223.782 82.8342C226.261 84.0963 227.81 87.0264 227.81 91.268V359.95C227.81 368.106 222.084 378.025 215.02 382.103L117.491 438.411C114.1 440.369 111.017 440.625 108.728 439.461L98.3359 433.461C100.625 434.625 103.708 434.369 107.098 432.411L204.627 376.103C211.691 372.025 217.418 362.106 217.418 353.95V85.268C217.418 81.0264 215.869 78.0963 213.389 76.8342L223.782 82.8342Z" fill="#EBE8FF" stroke="#0F2B46" stroke-dasharray="2 2"/>
<rect width="140.942" height="297.078" rx="14" transform="matrix(0.866025 -0.5 0 1 105 147.97)" fill="#EBE8FF" fill-opacity="0.9"/>
<path d="M121.089 235.558L215.544 181.024" stroke="#0F2B46" stroke-linejoin="round"/>
<path d="M120.594 264.151L185.13 226.891" stroke="#0F2B46" stroke-linejoin="round"/>
<path d="M120.594 249.997L215.049 195.463" stroke="#0F2B46" stroke-linejoin="round"/>
<path fill-rule="evenodd" clip-rule="evenodd" d="M108.728 439.461C106.248 438.199 104.7 435.269 104.7 431.027V162.346C104.7 154.189 110.426 144.27 117.491 140.191L215.019 83.8831C218.41 81.9254 221.493 81.6693 223.782 82.8343L213.389 76.8343C211.1 75.6693 208.018 75.9254 204.627 77.8831L107.098 134.191C100.034 138.27 94.3076 148.189 94.3076 156.346V425.027C94.3076 429.269 95.8561 432.199 98.3359 433.461L108.728 439.461Z" fill="#EBE8FF" stroke="#0F2B46"/>
<path d="M137.158 129.1L185.086 101.429V101.429C185.086 108.935 179.816 118.061 173.317 121.814L148.927 135.895C142.427 139.648 137.158 136.606 137.158 129.1V129.1Z" fill="#EBE8FF" stroke="#0F2B46"/>
<path fill-rule="evenodd" clip-rule="evenodd" d="M486.34 429.227C485.657 429.671 484.687 429.634 483.611 429.013L327.212 338.716C325.143 337.522 323.466 334.616 323.466 332.227V221.924C323.466 220.777 323.852 219.958 324.483 219.548L334.875 213.548C334.245 213.958 333.858 214.777 333.858 215.924V326.227C333.858 328.616 335.535 331.522 337.604 332.716L494.004 423.013C495.079 423.634 496.049 423.671 496.733 423.227L486.34 429.227Z" fill="#EBE8FF" stroke="#0F2B46" stroke-dasharray="2 2"/>
<path fill-rule="evenodd" clip-rule="evenodd" d="M324.483 219.548C325.166 219.104 326.136 219.14 327.212 219.761L483.611 310.058C485.68 311.253 487.358 314.158 487.358 316.547V426.85C487.358 427.997 486.971 428.816 486.34 429.226L496.733 423.226C497.363 422.816 497.75 421.997 497.75 420.85V310.547C497.75 308.158 496.072 305.253 494.004 304.058L337.604 213.761C336.528 213.14 335.558 213.104 334.875 213.548L324.483 219.548Z" fill="#EBE8FF" stroke="#0F2B46"/>
<rect width="188.216" height="118.003" rx="4" transform="matrix(0.866025 0.5 0 1 323.964 218.233)" fill="#EBE8FF" fill-opacity="0.9"/>
<path d="M408.805 305.439L467.464 339.306" stroke="#0F2B46" stroke-linejoin="round"/>
<path d="M408.805 320.778L467.464 354.645" stroke="#0F2B46" stroke-linejoin="round"/>
<path d="M408.805 336.118L467.464 369.984" stroke="#0F2B46" stroke-linejoin="round"/>
<path d="M408.805 351.457L467.464 385.324" stroke="#0F2B46" stroke-linejoin="round"/>
<path d="M408.805 366.797L467.464 400.664" stroke="#0F2B46" stroke-linejoin="round"/>
<path fill-rule="evenodd" clip-rule="evenodd" d="M331.174 238.126C332.021 237.637 333.191 237.707 334.483 238.454C337.068 239.946 339.163 243.575 339.163 246.559C339.163 248.051 338.639 249.1 337.792 249.589L341.391 247.968C342.238 247.479 342.762 246.43 342.762 244.938C342.762 241.954 340.667 238.325 338.082 236.832C336.79 236.086 335.62 236.016 334.773 236.505L331.174 238.126Z" fill="#0F2B46" stroke="#0F2B46"/>
<path d="M339.164 246.56C339.164 249.544 337.069 250.754 334.485 249.262C331.9 247.769 329.805 244.14 329.805 241.156C329.805 238.171 331.9 236.962 334.485 238.454C337.069 239.946 339.164 243.575 339.164 246.56Z" fill="#EBE8FF" stroke="#0F2B46"/>
<path fill-rule="evenodd" clip-rule="evenodd" d="M343.36 244.979C344.207 244.49 345.377 244.561 346.669 245.307C349.254 246.799 351.349 250.428 351.349 253.413C351.349 254.905 350.825 255.954 349.978 256.443L353.577 254.821C354.424 254.332 354.948 253.284 354.948 251.792C354.948 248.807 352.853 245.178 350.268 243.686C348.976 242.94 347.806 242.869 346.959 243.358L343.36 244.979Z" fill="#0F2B46" stroke="#0F2B46"/>
<path d="M351.349 253.413C351.349 256.398 349.254 257.608 346.67 256.115C344.085 254.623 341.99 250.994 341.99 248.01C341.99 245.025 344.085 243.816 346.67 245.308C349.254 246.8 351.349 250.429 351.349 253.413Z" fill="#EBE8FF" stroke="#0F2B46"/>
<path fill-rule="evenodd" clip-rule="evenodd" d="M356.305 252.593C357.152 252.104 358.322 252.174 359.614 252.921C362.199 254.413 364.294 258.042 364.294 261.026C364.294 262.518 363.77 263.567 362.923 264.056L366.523 262.435C367.369 261.946 367.893 260.897 367.893 259.405C367.893 256.421 365.798 252.792 363.213 251.299C361.921 250.553 360.751 250.483 359.904 250.972L356.305 252.593Z" fill="#0F2B46" stroke="#0F2B46"/>
<path d="M364.294 261.027C364.294 264.011 362.198 265.221 359.614 263.729C357.029 262.237 354.934 258.607 354.934 255.623C354.934 252.639 357.029 251.429 359.614 252.921C362.198 254.413 364.294 258.042 364.294 261.027Z" fill="#EBE8FF" stroke="#0F2B46"/>
<rect width="16.469" height="27.1591" rx="4" transform="matrix(0.866025 0.5 0 1 334.746 300.031)" fill="#A89CFF"/>
<rect width="16.469" height="47.9456" rx="4" transform="matrix(0.866025 0.5 0 1 354.782 290.811)" fill="#A89CFF"/>
<rect width="16.469" height="63.9153" rx="4" transform="matrix(0.866025 0.5 0 1 375.156 286.606)" fill="#A89CFF"/>
<path fill-rule="evenodd" clip-rule="evenodd" d="M485.323 277.289C484.64 277.733 483.67 277.697 482.594 277.076L326.195 186.779C324.126 185.584 322.449 182.679 322.449 180.29V69.9863C322.449 68.8396 322.835 68.0202 323.466 67.6102L333.858 61.6102C333.227 62.0202 332.841 62.8396 332.841 63.9863V174.29C332.841 176.679 334.518 179.584 336.587 180.779L492.986 271.076C494.062 271.697 495.032 271.733 495.716 271.289L485.323 277.289Z" fill="#EBE8FF" stroke="#0F2B46" stroke-dasharray="2 2"/>
<path fill-rule="evenodd" clip-rule="evenodd" d="M323.466 67.6101C324.149 67.166 325.119 67.2023 326.195 67.8234L482.594 158.121C484.663 159.315 486.341 162.22 486.341 164.609V274.913C486.341 276.059 485.954 276.879 485.323 277.289L495.716 271.289C496.346 270.879 496.733 270.059 496.733 268.913V158.609C496.733 156.22 495.055 153.315 492.986 152.121L336.587 61.8234C335.511 61.2023 334.541 61.166 333.858 61.6101L323.466 67.6101Z" fill="#EBE8FF" stroke="#0F2B46"/>
<g clip-path="url(#clip0_1541_44968)">
<rect width="188.216" height="118.003" rx="4" transform="matrix(0.866025 0.5 0 1 322.947 66.2949)" fill="#EBE8FF" fill-opacity="0.9"/>
<path fill-rule="evenodd" clip-rule="evenodd" d="M332.385 85.9305C332.688 85.7335 333.118 85.7496 333.595 86.0251L355.822 98.8577C356.74 99.3876 357.484 100.676 357.484 101.736V116.128C357.484 116.636 357.312 117 357.033 117.182L360.356 115.263C360.636 115.081 360.807 114.717 360.807 114.209V99.8171C360.807 98.7573 360.063 97.4687 359.146 96.9388L336.919 84.1062C336.442 83.8307 336.011 83.8146 335.708 84.0116L332.385 85.9305Z" fill="#0F2B46"/>
<path fill-rule="evenodd" clip-rule="evenodd" d="M357.033 117.181C356.73 117.378 356.299 117.362 355.822 117.087L333.595 104.254C332.678 103.724 331.934 102.436 331.934 101.376V86.9843C331.934 86.4756 332.105 86.1121 332.385 85.9302L335.708 84.0114C335.429 84.1932 335.257 84.5567 335.257 85.0654V99.4571C335.257 100.517 336.001 101.806 336.919 102.335L359.146 115.168C359.623 115.443 360.053 115.46 360.356 115.263L357.033 117.181Z" fill="#0F2B46"/>
<path d="M332.349 87.2243C332.349 86.4295 332.907 86.1073 333.595 86.5047L355.822 99.3373C356.51 99.7347 357.068 100.701 357.068 101.496V115.888C357.068 116.682 356.51 117.005 355.822 116.607L333.595 103.775C332.907 103.377 332.349 102.411 332.349 101.616V87.2243Z" fill="#EBE8FF" stroke="#0F2B46" stroke-width="0.959443" stroke-linejoin="round"/>
<path d="M356.64 100.539L344.713 103.588L332.778 86.7529" stroke="#0F2B46" stroke-width="0.959443"/>
</g>
<path d="M407.788 153.501L466.447 187.368" stroke="#0F2B46" stroke-linejoin="round"/>
<path d="M407.788 168.84L466.447 202.707" stroke="#0F2B46" stroke-linejoin="round"/>
<path d="M407.788 184.18L466.447 218.047" stroke="#0F2B46" stroke-linejoin="round"/>
<path d="M407.788 199.519L466.447 233.386" stroke="#0F2B46" stroke-linejoin="round"/>
<path d="M407.788 214.86L442.429 234.86" stroke="#0F2B46" stroke-linejoin="round"/>
<rect width="16.469" height="28" rx="4" transform="matrix(0.866025 0.5 0 1 333.746 147.581)" fill="#A89CFF"/>
<rect width="16.469" height="46.8455" rx="4" transform="matrix(0.866025 0.5 0 1 353.782 139.666)" fill="#A89CFF"/>
<rect width="16.469" height="63.9153" rx="4" transform="matrix(0.866025 0.5 0 1 374.156 134.36)" fill="#A89CFF"/>
<path d="M128.812 195.504L131.227 199.76L136.627 197.548L132.72 204.203L133.642 209.881L128.812 209.737L123.982 215.458L124.904 208.715L120.996 206.573L126.397 202.549L128.812 195.504Z" fill="#A89CFF"/>
<path d="M148.305 184.25L150.72 188.506L156.12 186.294L152.212 192.948L153.135 198.626L148.305 198.483L143.474 204.204L144.397 197.461L140.489 195.318L145.889 191.294L148.305 184.25Z" fill="#A89CFF"/>
<path d="M167.797 172.995L170.212 177.252L175.613 175.04L171.705 181.694L172.627 187.372L167.797 187.229L162.967 192.95L163.889 186.207L159.982 184.064L165.382 180.04L167.797 172.995Z" fill="#A89CFF"/>
<path d="M187.289 161.741L189.704 165.998L195.105 163.786L191.197 170.44L192.12 176.118L187.289 175.975L182.459 181.696L183.382 174.952L179.474 172.81L184.874 168.786L187.289 161.741Z" fill="#A89CFF"/>
<path d="M206.782 150.487L209.197 154.743L214.597 152.532L210.69 159.186L211.612 164.864L206.782 164.721L201.952 170.441L202.874 163.698L198.967 161.556L204.367 157.532L206.782 150.487Z" fill="#A89CFF"/>
<path d="M121.089 344.749L215.544 290.216" stroke="#0F2B46" stroke-linejoin="round"/>
<path d="M120.594 373.343L185.13 336.083" stroke="#0F2B46" stroke-linejoin="round"/>
<path d="M120.594 359.189L215.049 304.655" stroke="#0F2B46" stroke-linejoin="round"/>
<path d="M128.816 303.312L131.232 307.571L136.636 305.358L132.726 312.016L133.649 317.696L128.816 317.553L123.983 323.277L124.906 316.53L120.997 314.387L126.4 310.361L128.816 303.312Z" fill="#A89CFF"/>
<path d="M148.319 292.052L150.735 296.311L156.139 294.098L152.229 300.756L153.152 306.436L148.319 306.293L143.486 312.017L144.409 305.27L140.5 303.127L145.903 299.101L148.319 292.052Z" fill="#A89CFF"/>
<path d="M167.822 280.792L170.238 285.051L175.641 282.838L171.732 289.496L172.655 295.176L167.822 295.033L162.989 300.757L163.912 294.01L160.003 291.867L165.406 287.841L167.822 280.792Z" fill="#A89CFF"/>
<path d="M187.324 269.532L189.741 273.791L195.144 271.578L191.234 278.236L192.157 283.916L187.324 283.773L182.492 289.497L183.415 282.75L179.505 280.607L184.908 276.581L187.324 269.532Z" fill="#A89CFF"/>
<path d="M206.827 258.272L209.244 262.531L214.647 260.318L210.737 266.976L211.66 272.657L206.827 272.513L201.995 278.237L202.918 271.49L199.008 269.347L204.411 265.321L206.827 258.272Z" fill="#A89CFF"/>
<path fill-rule="evenodd" clip-rule="evenodd" d="M501.322 222.299C500.374 222.915 499.029 222.865 497.537 222.003L445.575 192.003C442.705 190.346 440.379 186.317 440.379 183.003V123.003C440.379 121.413 440.915 120.276 441.79 119.707L452.182 113.707C451.307 114.276 450.771 115.413 450.771 117.003V177.003C450.771 180.317 453.098 184.346 455.967 186.003L507.929 216.003C509.421 216.865 510.767 216.915 511.714 216.299L501.322 222.299Z" fill="#0F2B46" stroke="#EBE8FF"/>
<path fill-rule="evenodd" clip-rule="evenodd" d="M441.79 119.707C442.738 119.091 444.083 119.142 445.575 120.003L497.537 150.003C500.407 151.66 502.733 155.69 502.733 159.003V219.003C502.733 220.594 502.197 221.73 501.322 222.299L511.715 216.299C512.589 215.73 513.125 214.594 513.125 213.003V153.003C513.125 149.69 510.799 145.66 507.929 144.003L455.968 114.003C454.475 113.142 453.13 113.091 452.182 113.707L441.79 119.707Z" fill="#0F2B46" stroke="#EBE8FF"/>
<g clip-path="url(#clip1_1541_44968)">
<rect width="72" height="72" rx="6" transform="matrix(0.866025 0.5 0 1 440.379 117.003)" fill="#0F2B46"/>
<g clip-path="url(#clip2_1541_44968)">
<path fill-rule="evenodd" clip-rule="evenodd" d="M485.412 199.003L457.699 183.003L457.699 181.003L485.412 197.003L485.412 199.003Z" fill="#EBE8FF"/>
<path fill-rule="evenodd" clip-rule="evenodd" d="M486.278 169.077L466.423 178.04L461.019 169.36L456.833 162.503L458.014 161.632L462.189 168.473L466.423 175.272L485.117 166.833L486.278 169.077Z" fill="#EBE8FF"/>
</g>
</g>
<rect width="72" height="72" rx="6" transform="matrix(0.866025 0.5 0 1 440.379 117.003)" stroke="#EBE8FF"/>
<path fill-rule="evenodd" clip-rule="evenodd" d="M501.322 374.86C500.374 375.476 499.029 375.426 497.537 374.564L445.575 344.564C442.705 342.908 440.379 338.878 440.379 335.564V275.564C440.379 273.974 440.915 272.837 441.79 272.269L452.182 266.269C451.307 266.837 450.771 267.974 450.771 269.564V329.564C450.771 332.878 453.098 336.908 455.967 338.564L507.929 368.564C509.421 369.426 510.767 369.476 511.714 368.86L501.322 374.86Z" fill="#0F2B46" stroke="#EBE8FF"/>
<path fill-rule="evenodd" clip-rule="evenodd" d="M441.79 272.269C442.738 271.652 444.083 271.703 445.575 272.564L497.537 302.564C500.407 304.221 502.733 308.251 502.733 311.564V371.564C502.733 373.155 502.197 374.292 501.322 374.86L511.715 368.86C512.589 368.292 513.125 367.155 513.125 365.564V305.564C513.125 302.251 510.799 298.221 507.929 296.564L455.968 266.564C454.475 265.703 453.13 265.652 452.182 266.269L441.79 272.269Z" fill="#0F2B46" stroke="#EBE8FF"/>
<g clip-path="url(#clip3_1541_44968)">
<rect width="72" height="72" rx="6" transform="matrix(0.866025 0.5 0 1 440.379 269.564)" fill="#0F2B46"/>
<g clip-path="url(#clip4_1541_44968)">
<path fill-rule="evenodd" clip-rule="evenodd" d="M485.412 351.565L457.699 335.564L457.699 333.564L485.412 349.565L485.412 351.565Z" fill="#EBE8FF"/>
<path fill-rule="evenodd" clip-rule="evenodd" d="M486.278 321.638L466.423 330.601L461.019 321.922L456.833 315.064L458.014 314.193L462.189 321.034L466.423 327.833L485.117 319.394L486.278 321.638Z" fill="#EBE8FF"/>
</g>
</g>
<rect width="72" height="72" rx="6" transform="matrix(0.866025 0.5 0 1 440.379 269.564)" stroke="#EBE8FF"/>
<path fill-rule="evenodd" clip-rule="evenodd" d="M268.179 438.633C268.164 438.351 268.342 438.067 268.714 437.852L286.549 427.556C287.264 427.142 288.424 427.142 289.14 427.556L306.974 437.852C307.318 438.051 307.496 438.308 307.51 438.568V461.79C307.496 461.53 307.318 461.273 306.974 461.075L289.14 450.778C288.424 450.365 287.264 450.365 286.549 450.778L268.714 461.075C268.342 461.289 268.164 461.574 268.179 461.855V438.633Z" fill="#EBE8FF" stroke="#0F2B46" stroke-linejoin="round"/>
<path fill-rule="evenodd" clip-rule="evenodd" d="M307.51 438.568C307.525 438.849 307.346 439.133 306.974 439.348L289.14 449.645C288.424 450.058 287.264 450.058 286.549 449.645L268.714 439.348C268.371 439.15 268.192 438.892 268.179 438.633V461.855C268.192 462.115 268.371 462.372 268.714 462.571L286.549 472.867C287.264 473.28 288.424 473.28 289.14 472.867L306.974 462.571C307.346 462.356 307.525 462.072 307.51 461.79V438.568Z" fill="#EBE8FF" stroke="#0F2B46" stroke-linejoin="round"/>
<rect width="23.5852" height="23.5852" rx="1.49585" transform="matrix(0.866025 0.5 -0.866025 0.5 287.844 426.808)" fill="#EBE8FF" stroke="#0F2B46"/>
<path fill-rule="evenodd" clip-rule="evenodd" d="M299.747 457.138C299.732 456.857 299.911 456.572 300.283 456.358L318.117 446.061C318.833 445.648 319.993 445.648 320.708 446.061L338.543 456.358C338.886 456.556 339.065 456.813 339.078 457.073V480.296C339.065 480.036 338.886 479.778 338.543 479.58L320.708 469.283C319.993 468.87 318.833 468.87 318.117 469.283L300.283 479.58C299.911 479.795 299.732 480.079 299.747 480.36V457.138Z" fill="#EBE8FF" stroke="#0F2B46" stroke-linejoin="round"/>
<path fill-rule="evenodd" clip-rule="evenodd" d="M339.078 457.073C339.093 457.354 338.914 457.639 338.542 457.853L320.708 468.15C319.992 468.563 318.832 468.563 318.117 468.15L300.282 457.853C299.939 457.655 299.76 457.398 299.747 457.138V480.36C299.76 480.62 299.939 480.878 300.282 481.076L318.117 491.373C318.832 491.786 319.992 491.786 320.708 491.373L338.542 481.076C338.914 480.861 339.093 480.577 339.078 480.295V457.073Z" fill="#EBE8FF" stroke="#0F2B46" stroke-linejoin="round"/>
<rect width="23.5852" height="23.5852" rx="1.49585" transform="matrix(0.866025 0.5 -0.866025 0.5 319.413 445.313)" fill="#EBE8FF" stroke="#0F2B46"/>
<path fill-rule="evenodd" clip-rule="evenodd" d="M332.403 475.643C332.388 475.362 332.567 475.078 332.939 474.863L350.773 464.566C351.489 464.153 352.649 464.153 353.364 464.566L371.199 474.863C371.542 475.061 371.721 475.319 371.735 475.578V498.801C371.721 498.541 371.542 498.284 371.199 498.085L353.364 487.789C352.649 487.375 351.489 487.375 350.773 487.789L332.939 498.085C332.567 498.3 332.388 498.584 332.403 498.866V475.643Z" fill="#A89CFF" stroke="#0F2B46" stroke-linejoin="round"/>
<path fill-rule="evenodd" clip-rule="evenodd" d="M371.734 475.578C371.749 475.86 371.571 476.144 371.199 476.359L353.364 486.656C352.649 487.069 351.489 487.069 350.773 486.656L332.939 476.359C332.595 476.161 332.417 475.903 332.403 475.643V498.866C332.417 499.125 332.595 499.383 332.939 499.581L350.773 509.878C351.489 510.291 352.649 510.291 353.364 509.878L371.199 499.581C371.571 499.366 371.749 499.082 371.734 498.801V475.578Z" fill="#A89CFF" stroke="#0F2B46" stroke-linejoin="round"/>
<rect width="23.5852" height="23.5852" rx="1.49585" transform="matrix(0.866025 0.5 -0.866025 0.5 352.069 463.818)" fill="#A89CFF" stroke="#0F2B46"/>
<path fill-rule="evenodd" clip-rule="evenodd" d="M235.812 457.319C235.797 457.038 235.976 456.754 236.348 456.539L254.182 446.242C254.898 445.829 256.058 445.829 256.773 446.242L274.608 456.539C274.951 456.737 275.13 456.995 275.143 457.255V480.477C275.13 480.217 274.951 479.96 274.608 479.761L256.773 469.465C256.058 469.052 254.898 469.052 254.182 469.465L236.348 479.761C235.976 479.976 235.797 480.26 235.812 480.542V457.319Z" fill="#EBE8FF" stroke="#0F2B46" stroke-linejoin="round"/>
<path fill-rule="evenodd" clip-rule="evenodd" d="M275.143 457.255C275.158 457.536 274.979 457.82 274.607 458.035L256.773 468.332C256.057 468.745 254.897 468.745 254.182 468.332L236.347 458.035C236.004 457.837 235.825 457.579 235.812 457.319V480.542C235.825 480.802 236.004 481.059 236.347 481.257L254.182 491.554C254.897 491.967 256.057 491.967 256.773 491.554L274.607 481.257C274.979 481.043 275.158 480.758 275.143 480.477V457.255Z" fill="#EBE8FF" stroke="#0F2B46" stroke-linejoin="round"/>
<rect width="23.5852" height="23.5852" rx="1.49585" transform="matrix(0.866025 0.5 -0.866025 0.5 255.478 445.494)" fill="#EBE8FF" stroke="#0F2B46"/>
<path fill-rule="evenodd" clip-rule="evenodd" d="M267.38 475.825C267.365 475.543 267.543 475.259 267.915 475.044L285.75 464.748C286.465 464.334 287.625 464.334 288.341 464.748L306.175 475.044C306.519 475.243 306.697 475.5 306.711 475.76V498.982C306.697 498.722 306.519 498.465 306.175 498.267L288.341 487.97C287.625 487.557 286.465 487.557 285.75 487.97L267.915 498.267C267.543 498.481 267.365 498.766 267.38 499.047V475.825Z" fill="#EBE8FF" stroke="#0F2B46" stroke-linejoin="round"/>
<path fill-rule="evenodd" clip-rule="evenodd" d="M306.711 475.76C306.726 476.041 306.547 476.325 306.175 476.54L288.341 486.837C287.625 487.25 286.465 487.25 285.75 486.837L267.915 476.54C267.572 476.342 267.393 476.084 267.379 475.825V499.047C267.393 499.307 267.572 499.564 267.915 499.763L285.75 510.059C286.465 510.472 287.625 510.472 288.341 510.059L306.175 499.763C306.547 499.548 306.726 499.264 306.711 498.982V475.76Z" fill="#EBE8FF" stroke="#0F2B46" stroke-linejoin="round"/>
<rect width="23.5852" height="23.5852" rx="1.49585" transform="matrix(0.866025 0.5 -0.866025 0.5 287.045 464)" fill="#EBE8FF" stroke="#0F2B46"/>
<path fill-rule="evenodd" clip-rule="evenodd" d="M300.036 494.33C300.021 494.049 300.2 493.764 300.572 493.55L318.406 483.253C319.122 482.84 320.282 482.84 320.997 483.253L338.832 493.55C339.175 493.748 339.354 494.005 339.367 494.265V517.488C339.354 517.228 339.175 516.97 338.832 516.772L320.997 506.475C320.282 506.062 319.122 506.062 318.406 506.475L300.572 516.772C300.2 516.987 300.021 517.271 300.036 517.552V494.33Z" fill="#A89CFF" stroke="#0F2B46" stroke-linejoin="round"/>
<path fill-rule="evenodd" clip-rule="evenodd" d="M339.367 494.265C339.382 494.547 339.203 494.831 338.831 495.046L320.997 505.342C320.281 505.755 319.121 505.755 318.406 505.342L300.571 495.046C300.228 494.847 300.049 494.59 300.036 494.33V517.552C300.049 517.812 300.228 518.07 300.571 518.268L318.406 528.565C319.121 528.978 320.281 528.978 320.997 528.565L338.831 518.268C339.203 518.053 339.382 517.769 339.367 517.488V494.265Z" fill="#A89CFF" stroke="#0F2B46" stroke-linejoin="round"/>
<rect width="23.5852" height="23.5852" rx="1.49585" transform="matrix(0.866025 0.5 -0.866025 0.5 319.702 482.505)" fill="#A89CFF" stroke="#0F2B46"/>
<path fill-rule="evenodd" clip-rule="evenodd" d="M203.76 475.825C203.745 475.543 203.923 475.259 204.295 475.044L222.13 464.748C222.845 464.334 224.005 464.334 224.721 464.748L242.555 475.044C242.899 475.243 243.077 475.5 243.091 475.76V498.982C243.077 498.722 242.899 498.465 242.555 498.267L224.721 487.97C224.005 487.557 222.845 487.557 222.13 487.97L204.295 498.267C203.923 498.481 203.745 498.766 203.76 499.047V475.825Z" fill="#A89CFF" stroke="#0F2B46" stroke-linejoin="round"/>
<path fill-rule="evenodd" clip-rule="evenodd" d="M243.091 475.76C243.106 476.041 242.927 476.325 242.555 476.54L224.72 486.837C224.005 487.25 222.845 487.25 222.13 486.837L204.295 476.54C203.952 476.342 203.773 476.084 203.759 475.825V499.047C203.773 499.307 203.952 499.564 204.295 499.763L222.13 510.059C222.845 510.472 224.005 510.472 224.72 510.059L242.555 499.763C242.927 499.548 243.106 499.264 243.091 498.982V475.76Z" fill="#A89CFF" stroke="#0F2B46" stroke-linejoin="round"/>
<rect width="23.5852" height="23.5852" rx="1.49585" transform="matrix(0.866025 0.5 -0.866025 0.5 223.425 464)" fill="#A89CFF" stroke="#0F2B46"/>
<path fill-rule="evenodd" clip-rule="evenodd" d="M235.328 494.33C235.313 494.049 235.491 493.764 235.863 493.55L253.698 483.253C254.413 482.84 255.573 482.84 256.289 483.253L274.123 493.55C274.467 493.748 274.645 494.005 274.659 494.265V517.487C274.645 517.228 274.467 516.97 274.123 516.772L256.289 506.475C255.573 506.062 254.413 506.062 253.698 506.475L235.863 516.772C235.491 516.987 235.313 517.271 235.328 517.552V494.33Z" fill="#EBE8FF" stroke="#0F2B46" stroke-linejoin="round"/>
<path fill-rule="evenodd" clip-rule="evenodd" d="M274.659 494.265C274.673 494.546 274.495 494.831 274.123 495.045L256.288 505.342C255.573 505.755 254.413 505.755 253.697 505.342L235.863 495.045C235.519 494.847 235.341 494.59 235.327 494.33V517.552C235.341 517.812 235.519 518.07 235.863 518.268L253.697 528.565C254.413 528.978 255.573 528.978 256.288 528.565L274.123 518.268C274.495 518.053 274.673 517.769 274.659 517.487V494.265Z" fill="#EBE8FF" stroke="#0F2B46" stroke-linejoin="round"/>
<rect width="23.5852" height="23.5852" rx="1.49585" transform="matrix(0.866025 0.5 -0.866025 0.5 254.993 482.505)" fill="#EBE8FF" stroke="#0F2B46"/>
<path fill-rule="evenodd" clip-rule="evenodd" d="M267.984 512.835C267.969 512.554 268.147 512.27 268.52 512.055L286.354 501.758C287.069 501.345 288.229 501.345 288.945 501.758L306.779 512.055C307.123 512.253 307.301 512.511 307.315 512.771V535.993C307.301 535.733 307.123 535.476 306.779 535.277L288.945 524.981C288.229 524.568 287.069 524.568 286.354 524.981L268.52 535.277C268.147 535.492 267.969 535.776 267.984 536.058V512.835Z" fill="#EBE8FF" stroke="#0F2B46" stroke-linejoin="round"/>
<path fill-rule="evenodd" clip-rule="evenodd" d="M307.315 512.77C307.33 513.052 307.152 513.336 306.78 513.551L288.945 523.848C288.23 524.261 287.07 524.261 286.354 523.848L268.52 513.551C268.176 513.353 267.998 513.095 267.984 512.835V536.058C267.998 536.318 268.176 536.575 268.52 536.773L286.354 547.07C287.07 547.483 288.23 547.483 288.945 547.07L306.78 536.773C307.152 536.558 307.33 536.274 307.315 535.993V512.77Z" fill="#EBE8FF" stroke="#0F2B46" stroke-linejoin="round"/>
<rect width="23.5852" height="23.5852" rx="1.49585" transform="matrix(0.866025 0.5 -0.866025 0.5 287.649 501.01)" fill="#EBE8FF" stroke="#0F2B46"/>
<path fill-rule="evenodd" clip-rule="evenodd" d="M268.179 403.799C268.164 403.518 268.342 403.234 268.714 403.019L286.549 392.722C287.264 392.309 288.424 392.309 289.14 392.722L306.974 403.019C307.318 403.217 307.496 403.474 307.51 403.734V426.957C307.496 426.697 307.318 426.439 306.974 426.241L289.14 415.944C288.424 415.531 287.264 415.531 286.549 415.944L268.714 426.241C268.342 426.456 268.164 426.74 268.179 427.022V403.799Z" fill="#EBE8FF" stroke="#0F2B46" stroke-linejoin="round"/>
<path fill-rule="evenodd" clip-rule="evenodd" d="M307.51 403.734C307.525 404.016 307.346 404.3 306.974 404.515L289.14 414.811C288.424 415.224 287.264 415.224 286.549 414.811L268.714 404.515C268.371 404.316 268.192 404.059 268.179 403.799V427.022C268.192 427.281 268.371 427.539 268.714 427.737L286.549 438.034C287.264 438.447 288.424 438.447 289.14 438.034L306.974 427.737C307.346 427.522 307.525 427.238 307.51 426.957V403.734Z" fill="#EBE8FF" stroke="#0F2B46" stroke-linejoin="round"/>
<rect width="23.5852" height="23.5852" rx="1.49585" transform="matrix(0.866025 0.5 -0.866025 0.5 287.844 391.974)" fill="#EBE8FF" stroke="#0F2B46"/>
<path fill-rule="evenodd" clip-rule="evenodd" d="M299.747 422.304C299.732 422.023 299.911 421.739 300.283 421.524L318.117 411.227C318.833 410.814 319.993 410.814 320.708 411.227L338.543 421.524C338.886 421.722 339.065 421.98 339.078 422.239V445.462C339.065 445.202 338.886 444.945 338.543 444.746L320.708 434.45C319.993 434.037 318.833 434.037 318.117 434.45L300.283 444.746C299.911 444.961 299.732 445.245 299.747 445.527V422.304Z" fill="#EBE8FF" stroke="#0F2B46" stroke-linejoin="round"/>
<path fill-rule="evenodd" clip-rule="evenodd" d="M339.078 422.24C339.093 422.521 338.914 422.805 338.542 423.02L320.708 433.317C319.992 433.73 318.832 433.73 318.117 433.317L300.282 423.02C299.939 422.822 299.76 422.564 299.747 422.304V445.527C299.76 445.787 299.939 446.044 300.282 446.242L318.117 456.539C318.832 456.952 319.992 456.952 320.708 456.539L338.542 446.242C338.914 446.028 339.093 445.743 339.078 445.462V422.24Z" fill="#EBE8FF" stroke="#0F2B46" stroke-linejoin="round"/>
<rect width="23.5852" height="23.5852" rx="1.49585" transform="matrix(0.866025 0.5 -0.866025 0.5 319.413 410.479)" fill="#EBE8FF" stroke="#0F2B46"/>
<path fill-rule="evenodd" clip-rule="evenodd" d="M332.403 440.81C332.388 440.528 332.567 440.244 332.939 440.029L350.773 429.733C351.489 429.32 352.649 429.32 353.364 429.733L371.199 440.029C371.542 440.228 371.721 440.485 371.735 440.745V463.967C371.721 463.707 371.542 463.45 371.199 463.252L353.364 452.955C352.649 452.542 351.489 452.542 350.773 452.955L332.939 463.252C332.567 463.467 332.388 463.751 332.403 464.032V440.81Z" fill="#EBE8FF" stroke="#0F2B46" stroke-linejoin="round"/>
<path fill-rule="evenodd" clip-rule="evenodd" d="M371.734 440.745C371.749 441.026 371.571 441.31 371.199 441.525L353.364 451.822C352.649 452.235 351.489 452.235 350.773 451.822L332.939 441.525C332.595 441.327 332.417 441.07 332.403 440.81V464.032C332.417 464.292 332.595 464.549 332.939 464.748L350.773 475.044C351.489 475.458 352.649 475.458 353.364 475.044L371.199 464.748C371.571 464.533 371.749 464.249 371.734 463.967V440.745Z" fill="#EBE8FF" stroke="#0F2B46" stroke-linejoin="round"/>
<rect width="23.5852" height="23.5852" rx="1.49585" transform="matrix(0.866025 0.5 -0.866025 0.5 352.069 428.985)" fill="#EBE8FF" stroke="#0F2B46"/>
<path fill-rule="evenodd" clip-rule="evenodd" d="M235.812 422.486C235.797 422.205 235.976 421.92 236.348 421.706L254.182 411.409C254.898 410.996 256.058 410.996 256.773 411.409L274.608 421.706C274.951 421.904 275.13 422.161 275.143 422.421V445.643C275.13 445.384 274.951 445.126 274.608 444.928L256.773 434.631C256.058 434.218 254.898 434.218 254.182 434.631L236.348 444.928C235.976 445.143 235.797 445.427 235.812 445.708V422.486Z" fill="#EBE8FF" stroke="#0F2B46" stroke-linejoin="round"/>
<path fill-rule="evenodd" clip-rule="evenodd" d="M275.143 422.421C275.158 422.702 274.979 422.987 274.607 423.201L256.773 433.498C256.057 433.911 254.897 433.911 254.182 433.498L236.347 423.201C236.004 423.003 235.825 422.746 235.812 422.486V445.708C235.825 445.968 236.004 446.225 236.347 446.424L254.182 456.72C254.897 457.134 256.057 457.134 256.773 456.72L274.607 446.424C274.979 446.209 275.158 445.925 275.143 445.643V422.421Z" fill="#EBE8FF" stroke="#0F2B46" stroke-linejoin="round"/>
<rect width="23.5852" height="23.5852" rx="1.49585" transform="matrix(0.866025 0.5 -0.866025 0.5 255.478 410.661)" fill="#EBE8FF" stroke="#0F2B46"/>
<path fill-rule="evenodd" clip-rule="evenodd" d="M267.38 440.991C267.365 440.71 267.543 440.426 267.915 440.211L285.75 429.914C286.465 429.501 287.625 429.501 288.341 429.914L306.175 440.211C306.519 440.409 306.697 440.666 306.711 440.926V464.149C306.697 463.889 306.519 463.631 306.175 463.433L288.341 453.136C287.625 452.723 286.465 452.723 285.75 453.136L267.915 463.433C267.543 463.648 267.365 463.932 267.38 464.214V440.991Z" fill="#EBE8FF" stroke="#0F2B46" stroke-linejoin="round"/>
<path fill-rule="evenodd" clip-rule="evenodd" d="M306.711 440.926C306.726 441.208 306.547 441.492 306.175 441.707L288.341 452.003C287.625 452.417 286.465 452.417 285.75 452.003L267.915 441.707C267.572 441.508 267.393 441.251 267.379 440.991V464.214C267.393 464.473 267.572 464.731 267.915 464.929L285.75 475.226C286.465 475.639 287.625 475.639 288.341 475.226L306.175 464.929C306.547 464.714 306.726 464.43 306.711 464.149V440.926Z" fill="#EBE8FF" stroke="#0F2B46" stroke-linejoin="round"/>
<rect width="23.5852" height="23.5852" rx="1.49585" transform="matrix(0.866025 0.5 -0.866025 0.5 287.045 429.166)" fill="#EBE8FF" stroke="#0F2B46"/>
<path fill-rule="evenodd" clip-rule="evenodd" d="M300.036 459.497C300.021 459.215 300.2 458.931 300.572 458.716L318.406 448.419C319.122 448.006 320.282 448.006 320.997 448.419L338.832 458.716C339.175 458.914 339.354 459.172 339.367 459.432V482.654C339.354 482.394 339.175 482.137 338.832 481.939L320.997 471.642C320.282 471.229 319.122 471.229 318.406 471.642L300.572 481.939C300.2 482.153 300.021 482.438 300.036 482.719V459.497Z" fill="#A89CFF" stroke="#0F2B46" stroke-linejoin="round"/>
<path fill-rule="evenodd" clip-rule="evenodd" d="M339.367 459.432C339.382 459.713 339.203 459.997 338.831 460.212L320.997 470.509C320.281 470.922 319.121 470.922 318.406 470.509L300.571 460.212C300.228 460.014 300.049 459.756 300.036 459.496V482.719C300.049 482.979 300.228 483.236 300.571 483.434L318.406 493.731C319.121 494.144 320.281 494.144 320.997 493.731L338.831 483.434C339.203 483.22 339.382 482.935 339.367 482.654V459.432Z" fill="#A89CFF" stroke="#0F2B46" stroke-linejoin="round"/>
<rect width="23.5852" height="23.5852" rx="1.49585" transform="matrix(0.866025 0.5 -0.866025 0.5 319.702 447.671)" fill="#A89CFF" stroke="#0F2B46"/>
<path fill-rule="evenodd" clip-rule="evenodd" d="M203.76 440.991C203.745 440.71 203.923 440.426 204.295 440.211L222.13 429.914C222.845 429.501 224.005 429.501 224.721 429.914L242.555 440.211C242.899 440.409 243.077 440.666 243.091 440.926V464.149C243.077 463.889 242.899 463.631 242.555 463.433L224.721 453.136C224.005 452.723 222.845 452.723 222.13 453.136L204.295 463.433C203.923 463.648 203.745 463.932 203.76 464.214V440.991Z" fill="#EBE8FF" stroke="#0F2B46" stroke-linejoin="round"/>
<path fill-rule="evenodd" clip-rule="evenodd" d="M243.091 440.926C243.106 441.208 242.927 441.492 242.555 441.707L224.72 452.003C224.005 452.417 222.845 452.417 222.13 452.003L204.295 441.707C203.952 441.508 203.773 441.251 203.759 440.991V464.214C203.773 464.473 203.952 464.731 204.295 464.929L222.13 475.226C222.845 475.639 224.005 475.639 224.72 475.226L242.555 464.929C242.927 464.714 243.106 464.43 243.091 464.149V440.926Z" fill="#EBE8FF" stroke="#0F2B46" stroke-linejoin="round"/>
<rect width="23.5852" height="23.5852" rx="1.49585" transform="matrix(0.866025 0.5 -0.866025 0.5 223.425 429.166)" fill="#EBE8FF" stroke="#0F2B46"/>
<path fill-rule="evenodd" clip-rule="evenodd" d="M235.328 459.497C235.313 459.215 235.491 458.931 235.863 458.716L253.698 448.419C254.413 448.006 255.573 448.006 256.289 448.419L274.123 458.716C274.467 458.914 274.645 459.172 274.659 459.432V482.654C274.645 482.394 274.467 482.137 274.123 481.939L256.289 471.642C255.573 471.229 254.413 471.229 253.698 471.642L235.863 481.939C235.491 482.153 235.313 482.438 235.328 482.719V459.497Z" fill="#EBE8FF" stroke="#0F2B46" stroke-linejoin="round"/>
<path fill-rule="evenodd" clip-rule="evenodd" d="M274.659 459.432C274.673 459.713 274.495 459.997 274.123 460.212L256.288 470.509C255.573 470.922 254.413 470.922 253.697 470.509L235.863 460.212C235.519 460.014 235.341 459.756 235.327 459.496V482.719C235.341 482.979 235.519 483.236 235.863 483.434L253.697 493.731C254.413 494.144 255.573 494.144 256.288 493.731L274.123 483.434C274.495 483.22 274.673 482.935 274.659 482.654V459.432Z" fill="#EBE8FF" stroke="#0F2B46" stroke-linejoin="round"/>
<rect width="23.5852" height="23.5852" rx="1.49585" transform="matrix(0.866025 0.5 -0.866025 0.5 254.993 447.672)" fill="#EBE8FF" stroke="#0F2B46"/>
<path fill-rule="evenodd" clip-rule="evenodd" d="M267.984 478.002C267.969 477.72 268.147 477.436 268.52 477.221L286.354 466.925C287.069 466.512 288.229 466.512 288.945 466.925L306.779 477.221C307.123 477.42 307.301 477.677 307.315 477.937V501.159C307.301 500.9 307.123 500.642 306.779 500.444L288.945 490.147C288.229 489.734 287.069 489.734 286.354 490.147L268.52 500.444C268.147 500.659 267.969 500.943 267.984 501.224V478.002Z" fill="#A89CFF" stroke="#0F2B46" stroke-linejoin="round"/>
<path fill-rule="evenodd" clip-rule="evenodd" d="M307.315 477.937C307.33 478.218 307.152 478.502 306.78 478.717L288.945 489.014C288.23 489.427 287.07 489.427 286.354 489.014L268.52 478.717C268.176 478.519 267.998 478.262 267.984 478.002V501.224C267.998 501.484 268.176 501.741 268.52 501.94L286.354 512.236C287.07 512.65 288.23 512.65 288.945 512.236L306.78 501.94C307.152 501.725 307.33 501.441 307.315 501.159V477.937Z" fill="#A89CFF" stroke="#0F2B46" stroke-linejoin="round"/>
<rect width="23.5852" height="23.5852" rx="1.49585" transform="matrix(0.866025 0.5 -0.866025 0.5 287.649 466.177)" fill="#A89CFF" stroke="#0F2B46"/>
<path fill-rule="evenodd" clip-rule="evenodd" d="M268.179 368.966C268.164 368.684 268.342 368.4 268.714 368.185L286.549 357.888C287.264 357.475 288.424 357.475 289.14 357.888L306.974 368.185C307.318 368.383 307.496 368.641 307.51 368.901V392.123C307.496 391.863 307.318 391.606 306.974 391.408L289.14 381.111C288.424 380.698 287.264 380.698 286.549 381.111L268.714 391.408C268.342 391.622 268.164 391.907 268.179 392.188V368.966Z" fill="#EBE8FF" stroke="#0F2B46" stroke-linejoin="round"/>
<path fill-rule="evenodd" clip-rule="evenodd" d="M307.51 368.901C307.525 369.182 307.346 369.466 306.974 369.681L289.14 379.978C288.424 380.391 287.264 380.391 286.549 379.978L268.714 369.681C268.371 369.483 268.192 369.225 268.179 368.966V392.188C268.192 392.448 268.371 392.705 268.714 392.903L286.549 403.2C287.264 403.613 288.424 403.613 289.14 403.2L306.974 392.903C307.346 392.689 307.525 392.404 307.51 392.123V368.901Z" fill="#EBE8FF" stroke="#0F2B46" stroke-linejoin="round"/>
<rect width="23.5852" height="23.5852" rx="1.49585" transform="matrix(0.866025 0.5 -0.866025 0.5 287.844 357.141)" fill="#EBE8FF" stroke="#0F2B46"/>
<path fill-rule="evenodd" clip-rule="evenodd" d="M299.747 387.471C299.732 387.19 299.911 386.905 300.283 386.691L318.117 376.394C318.833 375.981 319.993 375.981 320.708 376.394L338.543 386.691C338.886 386.889 339.065 387.146 339.078 387.406V410.628C339.065 410.369 338.886 410.111 338.543 409.913L320.708 399.616C319.993 399.203 318.833 399.203 318.117 399.616L300.283 409.913C299.911 410.128 299.732 410.412 299.747 410.693V387.471Z" fill="#EBE8FF" stroke="#0F2B46" stroke-linejoin="round"/>
<path fill-rule="evenodd" clip-rule="evenodd" d="M339.078 387.406C339.093 387.687 338.914 387.972 338.542 388.186L320.708 398.483C319.992 398.896 318.832 398.896 318.117 398.483L300.282 388.186C299.939 387.988 299.76 387.731 299.747 387.471V410.693C299.76 410.953 299.939 411.211 300.282 411.409L318.117 421.706C318.832 422.119 319.992 422.119 320.708 421.706L338.542 411.409C338.914 411.194 339.093 410.91 339.078 410.628V387.406Z" fill="#EBE8FF" stroke="#0F2B46" stroke-linejoin="round"/>
<rect width="23.5852" height="23.5852" rx="1.49585" transform="matrix(0.866025 0.5 -0.866025 0.5 319.413 375.646)" fill="#EBE8FF" stroke="#0F2B46"/>
<path fill-rule="evenodd" clip-rule="evenodd" d="M332.403 405.976C332.388 405.695 332.567 405.411 332.939 405.196L350.773 394.899C351.489 394.486 352.649 394.486 353.364 394.899L371.199 405.196C371.542 405.394 371.721 405.651 371.735 405.911V429.134C371.721 428.874 371.542 428.616 371.199 428.418L353.364 418.121C352.649 417.708 351.489 417.708 350.773 418.121L332.939 428.418C332.567 428.633 332.388 428.917 332.403 429.199V405.976Z" fill="#A89CFF" stroke="#0F2B46" stroke-linejoin="round"/>
<path fill-rule="evenodd" clip-rule="evenodd" d="M371.734 405.911C371.749 406.193 371.571 406.477 371.199 406.692L353.364 416.988C352.649 417.401 351.489 417.401 350.773 416.988L332.939 406.692C332.595 406.493 332.417 406.236 332.403 405.976V429.199C332.417 429.458 332.595 429.716 332.939 429.914L350.773 440.211C351.489 440.624 352.649 440.624 353.364 440.211L371.199 429.914C371.571 429.699 371.749 429.415 371.734 429.134V405.911Z" fill="#A89CFF" stroke="#0F2B46" stroke-linejoin="round"/>
<rect width="23.5852" height="23.5852" rx="1.49585" transform="matrix(0.866025 0.5 -0.866025 0.5 352.069 394.151)" fill="#A89CFF" stroke="#0F2B46"/>
<path fill-rule="evenodd" clip-rule="evenodd" d="M235.812 387.652C235.797 387.371 235.976 387.087 236.348 386.872L254.182 376.575C254.898 376.162 256.058 376.162 256.773 376.575L274.608 386.872C274.951 387.07 275.13 387.328 275.143 387.587V410.81C275.13 410.55 274.951 410.293 274.608 410.094L256.773 399.798C256.058 399.385 254.898 399.385 254.182 399.798L236.348 410.094C235.976 410.309 235.797 410.593 235.812 410.875V387.652Z" fill="#EBE8FF" stroke="#0F2B46" stroke-linejoin="round"/>
<path fill-rule="evenodd" clip-rule="evenodd" d="M275.143 387.587C275.158 387.869 274.979 388.153 274.607 388.368L256.773 398.665C256.057 399.078 254.897 399.078 254.182 398.665L236.347 388.368C236.004 388.17 235.825 387.912 235.812 387.652V410.875C235.825 411.135 236.004 411.392 236.347 411.59L254.182 421.887C254.897 422.3 256.057 422.3 256.773 421.887L274.607 411.59C274.979 411.375 275.158 411.091 275.143 410.81V387.587Z" fill="#EBE8FF" stroke="#0F2B46" stroke-linejoin="round"/>
<rect width="23.5852" height="23.5852" rx="1.49585" transform="matrix(0.866025 0.5 -0.866025 0.5 255.478 375.827)" fill="#EBE8FF" stroke="#0F2B46"/>
<path fill-rule="evenodd" clip-rule="evenodd" d="M267.38 406.158C267.365 405.876 267.543 405.592 267.915 405.377L285.75 395.081C286.465 394.667 287.625 394.667 288.341 395.081L306.175 405.377C306.519 405.576 306.697 405.833 306.711 406.093V429.315C306.697 429.055 306.519 428.798 306.175 428.6L288.341 418.303C287.625 417.89 286.465 417.89 285.75 418.303L267.915 428.6C267.543 428.815 267.365 429.099 267.38 429.38V406.158Z" fill="#EBE8FF" stroke="#0F2B46" stroke-linejoin="round"/>
<path fill-rule="evenodd" clip-rule="evenodd" d="M306.711 406.093C306.726 406.374 306.547 406.658 306.175 406.873L288.341 417.17C287.625 417.583 286.465 417.583 285.75 417.17L267.915 406.873C267.572 406.675 267.393 406.418 267.379 406.158V429.38C267.393 429.64 267.572 429.897 267.915 430.096L285.75 440.392C286.465 440.805 287.625 440.805 288.341 440.392L306.175 430.096C306.547 429.881 306.726 429.597 306.711 429.315V406.093Z" fill="#EBE8FF" stroke="#0F2B46" stroke-linejoin="round"/>
<rect width="23.5852" height="23.5852" rx="1.49585" transform="matrix(0.866025 0.5 -0.866025 0.5 287.045 394.333)" fill="#EBE8FF" stroke="#0F2B46"/>
<path fill-rule="evenodd" clip-rule="evenodd" d="M300.036 424.663C300.021 424.382 300.2 424.097 300.572 423.883L318.406 413.586C319.122 413.173 320.282 413.173 320.997 413.586L338.832 423.883C339.175 424.081 339.354 424.338 339.367 424.598V447.82C339.354 447.561 339.175 447.303 338.832 447.105L320.997 436.808C320.282 436.395 319.122 436.395 318.406 436.808L300.572 447.105C300.2 447.32 300.021 447.604 300.036 447.885V424.663Z" fill="#EBE8FF" stroke="#0F2B46" stroke-linejoin="round"/>
<path fill-rule="evenodd" clip-rule="evenodd" d="M339.367 424.598C339.382 424.879 339.203 425.164 338.831 425.378L320.997 435.675C320.281 436.088 319.121 436.088 318.406 435.675L300.571 425.378C300.228 425.18 300.049 424.923 300.036 424.663V447.885C300.049 448.145 300.228 448.403 300.571 448.601L318.406 458.898C319.121 459.311 320.281 459.311 320.997 458.898L338.831 448.601C339.203 448.386 339.382 448.102 339.367 447.82V424.598Z" fill="#EBE8FF" stroke="#0F2B46" stroke-linejoin="round"/>
<rect width="23.5852" height="23.5852" rx="1.49585" transform="matrix(0.866025 0.5 -0.866025 0.5 319.702 412.838)" fill="#EBE8FF" stroke="#0F2B46"/>
<path fill-rule="evenodd" clip-rule="evenodd" d="M203.76 406.158C203.745 405.876 203.923 405.592 204.295 405.377L222.13 395.081C222.845 394.667 224.005 394.667 224.721 395.081L242.555 405.377C242.899 405.576 243.077 405.833 243.091 406.093V429.315C243.077 429.055 242.899 428.798 242.555 428.6L224.721 418.303C224.005 417.89 222.845 417.89 222.13 418.303L204.295 428.6C203.923 428.815 203.745 429.099 203.76 429.38V406.158Z" fill="#A89CFF" stroke="#0F2B46" stroke-linejoin="round"/>
<path fill-rule="evenodd" clip-rule="evenodd" d="M243.091 406.093C243.106 406.374 242.927 406.658 242.555 406.873L224.72 417.17C224.005 417.583 222.845 417.583 222.13 417.17L204.295 406.873C203.952 406.675 203.773 406.418 203.759 406.158V429.38C203.773 429.64 203.952 429.897 204.295 430.096L222.13 440.392C222.845 440.805 224.005 440.805 224.72 440.392L242.555 430.096C242.927 429.881 243.106 429.597 243.091 429.315V406.093Z" fill="#A89CFF" stroke="#0F2B46" stroke-linejoin="round"/>
<rect width="23.5852" height="23.5852" rx="1.49585" transform="matrix(0.866025 0.5 -0.866025 0.5 223.425 394.333)" fill="#A89CFF" stroke="#0F2B46"/>
<path fill-rule="evenodd" clip-rule="evenodd" d="M235.328 424.663C235.313 424.382 235.491 424.097 235.863 423.883L253.698 413.586C254.413 413.173 255.573 413.173 256.289 413.586L274.123 423.883C274.467 424.081 274.645 424.338 274.659 424.598V447.82C274.645 447.561 274.467 447.303 274.123 447.105L256.289 436.808C255.573 436.395 254.413 436.395 253.698 436.808L235.863 447.105C235.491 447.32 235.313 447.604 235.328 447.885V424.663Z" fill="#EBE8FF" stroke="#0F2B46" stroke-linejoin="round"/>
<path fill-rule="evenodd" clip-rule="evenodd" d="M274.659 424.598C274.673 424.879 274.495 425.164 274.123 425.378L256.288 435.675C255.573 436.088 254.413 436.088 253.697 435.675L235.863 425.378C235.519 425.18 235.341 424.923 235.327 424.663V447.885C235.341 448.145 235.519 448.403 235.863 448.601L253.697 458.898C254.413 459.311 255.573 459.311 256.288 458.898L274.123 448.601C274.495 448.386 274.673 448.102 274.659 447.82V424.598Z" fill="#EBE8FF" stroke="#0F2B46" stroke-linejoin="round"/>
<rect width="23.5852" height="23.5852" rx="1.49585" transform="matrix(0.866025 0.5 -0.866025 0.5 254.993 412.838)" fill="#EBE8FF" stroke="#0F2B46"/>
<path fill-rule="evenodd" clip-rule="evenodd" d="M267.984 443.168C267.969 442.887 268.147 442.603 268.52 442.388L286.354 432.091C287.069 431.678 288.229 431.678 288.945 432.091L306.779 442.388C307.123 442.586 307.301 442.844 307.315 443.103V466.326C307.301 466.066 307.123 465.809 306.779 465.61L288.945 455.314C288.229 454.9 287.069 454.9 286.354 455.314L268.52 465.61C268.147 465.825 267.969 466.109 267.984 466.391V443.168Z" fill="#EBE8FF" stroke="#0F2B46" stroke-linejoin="round"/>
<path fill-rule="evenodd" clip-rule="evenodd" d="M307.315 443.103C307.33 443.385 307.152 443.669 306.78 443.884L288.945 454.181C288.23 454.594 287.07 454.594 286.354 454.181L268.52 443.884C268.176 443.686 267.998 443.428 267.984 443.168V466.391C267.998 466.651 268.176 466.908 268.52 467.106L286.354 477.403C287.07 477.816 288.23 477.816 288.945 477.403L306.78 467.106C307.152 466.891 307.33 466.607 307.315 466.326V443.103Z" fill="#EBE8FF" stroke="#0F2B46" stroke-linejoin="round"/>
<rect width="23.5852" height="23.5852" rx="1.49585" transform="matrix(0.866025 0.5 -0.866025 0.5 287.649 431.343)" fill="#EBE8FF" stroke="#0F2B46"/>
<path d="M254.993 367.613L252.493 371.169L257.493 374.056L254.993 367.613ZM254.993 421.216L257.493 417.659L252.493 414.773L254.993 421.216ZM254.56 370.455V372.517L255.426 373.017V370.955L254.56 370.455ZM254.56 374.578V376.64L255.426 377.14V375.078L254.56 374.578ZM254.56 378.702V380.763L255.426 381.263V379.202L254.56 378.702ZM254.56 382.825V384.887L255.426 385.387V383.325L254.56 382.825ZM254.56 386.948V389.01L255.426 389.51V387.448L254.56 386.948ZM254.56 391.072V393.133L255.426 393.633V391.572L254.56 391.072ZM254.56 395.195V397.257L255.426 397.757V395.695L254.56 395.195ZM254.56 399.318V401.38L255.426 401.88V399.818L254.56 399.318ZM254.56 403.442V405.503L255.426 406.003V403.942L254.56 403.442ZM254.56 407.565V409.627L255.426 410.127V408.065L254.56 407.565ZM254.56 411.688V413.75L255.426 414.25V412.188L254.56 411.688ZM254.56 415.812V417.873L255.426 418.373V416.312L254.56 415.812Z" fill="#0F2B46"/>
<path d="M288 386.555L285.5 390.112L290.5 392.998L288 386.555ZM288 440.158L290.5 436.602L285.5 433.715L288 440.158ZM287.567 389.398V391.459L288.433 391.959V389.898L287.567 389.398ZM287.567 393.521V395.583L288.433 396.083V394.021L287.567 393.521ZM287.567 397.644V399.706L288.433 400.206V398.144L287.567 397.644ZM287.567 401.768V403.829L288.433 404.329V402.268L287.567 401.768ZM287.567 405.891V407.953L288.433 408.453V406.391L287.567 405.891ZM287.567 410.014V412.076L288.433 412.576V410.514L287.567 410.014ZM287.567 414.138V416.199L288.433 416.699V414.638L287.567 414.138ZM287.567 418.261V420.323L288.433 420.823V418.761L287.567 418.261ZM287.567 422.384V424.446L288.433 424.946V422.884L287.567 422.384ZM287.567 426.508V428.569L288.433 429.069V427.008L287.567 426.508ZM287.567 430.631V432.693L288.433 433.193V431.131L287.567 430.631ZM287.567 434.754V436.816L288.433 437.316V435.254L287.567 434.754Z" fill="#0F2B46"/>
<path d="M319.702 367.613L317.202 371.169L322.202 374.056L319.702 367.613ZM319.702 421.216L322.202 417.659L317.202 414.773L319.702 421.216ZM319.269 370.455V372.517L320.135 373.017V370.955L319.269 370.455ZM319.269 374.578V376.64L320.135 377.14V375.078L319.269 374.578ZM319.269 378.702V380.763L320.135 381.263V379.202L319.269 378.702ZM319.269 382.825V384.887L320.135 385.387V383.325L319.269 382.825ZM319.269 386.948V389.01L320.135 389.51V387.448L319.269 386.948ZM319.269 391.072V393.133L320.135 393.633V391.572L319.269 391.072ZM319.269 395.195V397.257L320.135 397.757V395.695L319.269 395.195ZM319.269 399.318V401.38L320.135 401.88V399.818L319.269 399.318ZM319.269 403.442V405.503L320.135 406.003V403.942L319.269 403.442ZM319.269 407.565V409.627L320.135 410.127V408.065L319.269 407.565ZM319.269 411.688V413.75L320.135 414.25V412.188L319.269 411.688ZM319.269 415.812V417.873L320.135 418.373V416.312L319.269 415.812Z" fill="#0F2B46"/>
<path fill-rule="evenodd" clip-rule="evenodd" d="M134.389 119.577C135.397 120.09 136.026 121.28 136.026 123.003V183.003C136.026 186.317 133.699 190.346 130.83 192.003L78.868 222.003C77.4905 222.799 76.2382 222.903 75.3083 222.429L64.916 216.429C65.8459 216.903 67.0982 216.799 68.4757 216.003L120.437 186.003C123.307 184.346 125.633 180.317 125.633 177.003V117.003C125.633 115.28 125.004 114.09 123.997 113.577L134.389 119.577Z" fill="#0F2B46" stroke="#EBE8FF"/>
<path fill-rule="evenodd" clip-rule="evenodd" d="M75.3086 222.429C74.3011 221.917 73.6721 220.726 73.6721 219.003V159.003C73.6721 155.69 75.9985 151.66 78.8682 150.003L130.83 120.003C132.207 119.208 133.46 119.104 134.389 119.577L123.997 113.577C123.067 113.104 121.815 113.208 120.437 114.003L68.4759 144.003C65.6062 145.66 63.2798 149.69 63.2798 153.003V213.003C63.2798 214.726 63.9088 215.917 64.9162 216.429L75.3086 222.429Z" fill="#0F2B46" stroke="#EBE8FF"/>
<g clip-path="url(#clip5_1541_44968)">
<rect width="72" height="72" rx="6" transform="matrix(0.866025 -0.5 0 1 73.6719 153.003)" fill="#0F2B46"/>
<g clip-path="url(#clip6_1541_44968)">
<path fill-rule="evenodd" clip-rule="evenodd" d="M118.705 183.003L90.9922 199.003L90.9922 197.003L118.705 181.003L118.705 183.003Z" fill="#EBE8FF"/>
<path fill-rule="evenodd" clip-rule="evenodd" d="M119.571 152.077L99.7157 183.967L94.3116 181.527L90.126 179.503L91.3068 177.268L95.4824 179.288L99.7157 181.199L118.41 151.173L119.571 152.077Z" fill="#EBE8FF"/>
</g>
</g>
<rect width="72" height="72" rx="6" transform="matrix(0.866025 -0.5 0 1 73.6719 153.003)" stroke="#EBE8FF"/>
<path d="M360.4 278.891L356.854 287.477L347.168 281.192L360.4 278.891ZM353.689 284.334L291.884 324.435L290.206 323.347L352.011 283.246L353.689 284.334Z" fill="#0F2B46"/>
<path d="M213.173 278.891L216.719 287.477L226.406 281.192L213.173 278.891ZM219.884 284.334L281.69 324.435L283.367 323.347L221.562 283.246L219.884 284.334Z" fill="#0F2B46"/>
<path fill-rule="evenodd" clip-rule="evenodd" d="M214.92 314.849C214.845 313.439 215.74 312.015 217.604 310.938L281.131 274.261C284.716 272.192 290.528 272.192 294.113 274.261L357.89 311.083C359.611 312.076 360.505 313.366 360.574 314.668V338.668C360.505 337.366 359.611 336.076 357.89 335.083L294.113 298.261C290.528 296.192 284.716 296.192 281.131 298.261L217.604 334.938C215.74 336.015 214.845 337.439 214.92 338.849V314.849Z" fill="#0F2B46" stroke="#EBE8FF"/>
<path fill-rule="evenodd" clip-rule="evenodd" d="M360.574 314.668C360.648 316.078 359.754 317.502 357.889 318.578L294.363 355.255C290.778 357.325 284.965 357.325 281.38 355.255L217.604 318.434C215.883 317.44 214.988 316.15 214.919 314.849V338.849C214.988 340.15 215.883 341.44 217.604 342.434L281.38 379.255C284.965 381.325 290.778 381.325 294.363 379.255L357.889 342.578C359.754 341.502 360.648 340.078 360.574 338.668V314.668Z" fill="#0F2B46" stroke="#EBE8FF"/>
<rect width="88.345" height="88.6337" rx="7.49553" transform="matrix(0.866025 -0.5 0.866025 0.5 211.113 314.686)" fill="#0F2B46"/>
<rect width="88.345" height="88.6337" rx="7.49553" transform="matrix(0.866025 -0.5 0.866025 0.5 211.113 314.686)" stroke="#EBE8FF"/>
<path d="M281.403 322.207L260.666 316.75L262.535 315.671L272.021 327.624L273.268 329.103L277.907 334.939L275.241 336.478L259.973 316.75L262.708 315.171L296.844 324.006L294.075 325.605L283.965 322.926L281.403 322.207ZM270.221 328.463L282.858 321.167L285.108 322.467L272.471 329.762L270.221 328.463ZM274.872 308.148L283.008 303.451C284.67 302.492 286.228 301.805 287.682 301.392C289.159 300.966 290.555 300.746 291.871 300.733C293.209 300.706 294.456 300.866 295.61 301.212C296.764 301.559 297.872 302.039 298.933 302.652C300.018 303.278 300.884 303.951 301.53 304.67C302.176 305.363 302.499 306.11 302.499 306.909C302.499 307.682 302.13 308.508 301.391 309.388C300.653 310.24 299.476 311.133 297.86 312.066L291.005 316.024L288.824 314.764L295.644 310.827C297.214 309.921 298.241 309.088 298.726 308.328C299.187 307.555 299.21 306.836 298.795 306.17C298.356 305.49 297.572 304.824 296.441 304.171C295.287 303.504 294.133 303.065 292.979 302.852C291.848 302.625 290.636 302.672 289.343 302.991C288.051 303.285 286.631 303.878 285.085 304.77L278.3 308.688L277.746 306.889L302.118 320.961L299.591 322.42L274.872 308.148ZM295.416 296.287L297.978 294.808L322.697 309.08L320.135 310.559L295.416 296.287Z" fill="#EBE8FF"/>
<defs>
<clipPath id="clip0_1541_44968">
<rect width="188.216" height="118.003" rx="4" transform="matrix(0.866025 0.5 0 1 322.947 66.2949)" fill="white"/>
</clipPath>
<clipPath id="clip1_1541_44968">
<rect width="72" height="72" rx="6" transform="matrix(0.866025 0.5 0 1 440.379 117.003)" fill="white"/>
</clipPath>
<clipPath id="clip2_1541_44968">
<rect width="48" height="48" fill="white" transform="matrix(0.866025 0.5 0 1 450.771 135.003)"/>
</clipPath>
<clipPath id="clip3_1541_44968">
<rect width="72" height="72" rx="6" transform="matrix(0.866025 0.5 0 1 440.379 269.564)" fill="white"/>
</clipPath>
<clipPath id="clip4_1541_44968">
<rect width="48" height="48" fill="white" transform="matrix(0.866025 0.5 0 1 450.771 287.564)"/>
</clipPath>
<clipPath id="clip5_1541_44968">
<rect width="72" height="72" rx="6" transform="matrix(0.866025 -0.5 0 1 73.6719 153.003)" fill="white"/>
</clipPath>
<clipPath id="clip6_1541_44968">
<rect width="48" height="48" fill="white" transform="matrix(0.866025 -0.5 0 1 84.064 159.003)"/>
</clipPath>
</defs>
</svg>
