<?xml version="1.0" encoding="UTF-8"?>
<svg version="1.1" xmlns="http://www.w3.org/2000/svg" width="225" height="225">
<path d="M0 0 C3.45755939 1.66224479 6.68109027 3.66428166 9.9375 5.6875 C11.87934375 6.86991063 13.82208684 8.05084529 15.765625 9.23046875 C16.77689453 9.84712402 17.78816406 10.4637793 18.83007812 11.09912109 C22.08390357 13.05031371 25.36922508 14.93354339 28.671875 16.80078125 C29.75992432 17.41928955 30.84797363 18.03779785 31.96899414 18.67504883 C34.08050135 19.8723117 36.19675204 21.06125527 38.31811523 22.2409668 C39.27919189 22.79051025 40.24026855 23.34005371 41.23046875 23.90625 C42.08020264 24.38384766 42.92993652 24.86144531 43.80541992 25.35351562 C46.44577533 27.33444307 47.51466066 29.05641215 49 32 C49.38095093 34.69360352 49.38095093 34.69360352 49.38818359 37.62890625 C49.39764008 38.73355225 49.40709656 39.83819824 49.4168396 40.97631836 C49.41076691 42.1597583 49.40469421 43.34319824 49.3984375 44.5625 C49.40130768 45.78654541 49.40417786 47.01059082 49.40713501 48.27172852 C49.40917466 50.85726383 49.40365179 53.4428146 49.39111328 56.02832031 C49.37505933 59.98537712 49.3909665 63.94141246 49.41015625 67.8984375 C49.4081738 70.41146059 49.4043301 72.92448304 49.3984375 75.4375 C49.40451019 76.62093994 49.41058289 77.80437988 49.4168396 79.02368164 C49.40265488 80.68065063 49.40265488 80.68065063 49.38818359 82.37109375 C49.38579681 83.33974365 49.38341003 84.30839355 49.38095093 85.30639648 C48.78957318 89.48787256 47.12068243 92.15608827 43.7668457 94.68164062 C42.91179443 95.16826172 42.05674316 95.65488281 41.17578125 96.15625 C40.22896484 96.70410156 39.28214844 97.25195312 38.30664062 97.81640625 C36.82454102 98.64978516 36.82454102 98.64978516 35.3125 99.5 C32.42942745 101.1534987 29.5478251 102.80932992 26.67041016 104.47265625 C24.97535258 105.44214612 23.26772876 106.39023403 21.54443359 107.30859375 C17.24927769 109.626679 17.24927769 109.626679 15.00390625 113.7890625 C15.00261719 114.84867187 15.00132812 115.90828125 15 117 C14.98308105 117.65194336 14.96616211 118.30388672 14.94873047 118.97558594 C14.90179409 121.1109442 14.91239744 123.23935103 14.9375 125.375 C14.94201172 126.11105469 14.94652344 126.84710938 14.95117188 127.60546875 C14.96284858 129.40368158 14.98077989 131.20185197 15 133 C8.77787969 131.3659078 3.60034178 128.01273083 -1.875 124.75 C-4.02984988 123.47900044 -6.1848007 122.20817201 -8.33984375 120.9375 C-9.99282471 119.95910156 -9.99282471 119.95910156 -11.67919922 118.9609375 C-15.90971164 116.462814 -20.15404949 113.98891581 -24.40039062 111.51782227 C-27.39531957 109.77455213 -30.38731386 108.02633203 -33.37890625 106.27734375 C-36.98285052 104.17191076 -40.59445713 102.08092698 -44.21484375 100.00390625 C-45.00769775 99.5459668 -45.80055176 99.08802734 -46.61743164 98.61621094 C-48.07567952 97.77409526 -49.5369177 96.93712709 -51.00170898 96.10644531 C-54.15041869 94.28029735 -55.94649479 93.08025781 -58 90 C-58.26742554 87.43301392 -58.26742554 87.43301392 -58.29052734 84.32275391 C-58.30328705 83.15789459 -58.31604675 81.99303528 -58.32919312 80.7928772 C-58.33141876 79.53349335 -58.33364441 78.2741095 -58.3359375 76.9765625 C-58.3425943 75.68309906 -58.3492511 74.38963562 -58.35610962 73.05697632 C-58.36808273 70.31822371 -58.37179048 67.57959724 -58.37060547 64.84082031 C-58.37040238 61.3379302 -58.39769173 57.8358524 -58.43214989 54.33315468 C-58.45979026 50.98511188 -58.45856877 47.63721792 -58.4609375 44.2890625 C-58.47530853 43.03372711 -58.48967957 41.77839172 -58.50448608 40.48501587 C-58.49833282 39.31385223 -58.49217957 38.1426886 -58.48583984 36.93603516 C-58.48868988 35.90805817 -58.49153992 34.88008118 -58.49447632 33.82095337 C-57.86773073 30.24541291 -56.48165717 28.60280073 -54 26 C-51.24536133 24.12231445 -51.24536133 24.12231445 -48.08203125 22.36328125 C-47.22624229 21.88118195 -47.22624229 21.88118195 -46.35316467 21.38934326 C-44.51140535 20.3542441 -42.66212778 19.33345983 -40.8125 18.3125 C-39.54443214 17.60264547 -38.27701876 16.89162055 -37.01025391 16.17944336 C-35.11704071 15.11522861 -33.22348477 14.05170478 -31.32769775 12.99208069 C-26.13320338 10.08773324 -20.99217588 7.10051906 -15.875 4.0625 C-6.07227051 -1.75408604 -6.07227051 -1.75408604 0 0 Z M-24 37 C-25.42041821 39.84083641 -25.31452272 41.85477278 -25 45 C-23.56338689 47.52006844 -23.56338689 47.52006844 -21 49 C-17.22717474 49.33094958 -14.59264452 49.19754817 -11 48 C-7.6275129 49.28979885 -4.56332953 51.20259026 -1.4375 53 C-0.56158203 53.47050781 0.31433594 53.94101563 1.21679688 54.42578125 C8.33315115 58.49070417 8.33315115 58.49070417 9.515625 62.75390625 C9.67546875 63.82511719 9.8353125 64.89632812 10 66 C11.04374022 68.04451019 11.04374022 68.04451019 13 69 C16.45749949 69.66676878 16.45749949 69.66676878 20 69 C22.67838573 67.06873898 22.67838573 67.06873898 24 64 C24.25411568 60.36174137 24.25411568 60.36174137 23 57 C21.0745356 54.7763932 21.0745356 54.7763932 18 54 C16.61714895 54.20923922 15.24066748 54.46267553 13.87109375 54.74609375 C8.11486788 55.47247186 4.7304568 53.18137442 0.0625 50.0625 C-1.42378422 49.11275294 -2.91197385 48.165979 -4.40234375 47.22265625 C-5.36901978 46.58469116 -5.36901978 46.58469116 -6.35522461 45.93383789 C-7.97464042 44.83542261 -7.97464042 44.83542261 -10 45 C-10.061875 43.741875 -10.12375 42.48375 -10.1875 41.1875 C-10.59640451 37.8392239 -10.67484328 37.27381619 -13.375 35 C-17.98532711 33.24368491 -20.08274053 34.31976984 -24 37 Z M4.17822266 67.83618164 C3.5135498 68.27309326 2.84887695 68.71000488 2.1640625 69.16015625 C1.42929688 69.62357422 0.69453125 70.08699219 -0.0625 70.56445312 C-1.60045899 71.56074919 -3.13435899 72.56334002 -4.6640625 73.57226562 C-6.75105073 74.88028185 -8.71638961 76.07509481 -11 77 C-13.84375 76.30078125 -13.84375 76.30078125 -16 75 C-19.45553035 75.13822121 -21.28318109 75.35486298 -23.875 77.6875 C-25.35810604 80.73610685 -25.48891657 82.64742924 -25 86 C-23.56338689 88.52006844 -23.56338689 88.52006844 -21 90 C-17.5 90.75 -17.5 90.75 -14 90 C-11.15751732 87.449054 -10.08981203 86.0103853 -9.75 82.1875 C-9.8325 81.465625 -9.915 80.74375 -10 80 C-9.32582031 79.75507812 -8.65164062 79.51015625 -7.95703125 79.2578125 C-4.35909286 77.72738164 -1.06123937 75.84156692 2.3125 73.875 C3.28026367 73.31619141 3.28026367 73.31619141 4.26757812 72.74609375 C5.84675945 71.83367787 7.42361864 70.91724491 9 70 C9 69.34 9 68.68 9 68 C6.16205828 66.67449579 6.16205828 66.67449579 4.17822266 67.83618164 Z " fill="#F7F9F9" transform="translate(117,46)"/>
<path d="M0 0 C0.66 0.33 1.32 0.66 2 1 C0.68 2.65 -0.64 4.3 -2 6 C-3.32 5.67 -4.64 5.34 -6 5 C-4.06745228 2.9754262 -2.36841312 1.57894208 0 0 Z " fill="#CDD5D9" transform="translate(92,55)"/>
<path d="M0 0 C1.98 0 3.96 0 6 0 C6.33 1.65 6.66 3.3 7 5 C2.25 3.125 2.25 3.125 0 2 C0 1.34 0 0.68 0 0 Z " fill="#C8D3DA" transform="translate(107,89)"/>
</svg>
